<svg width="64" height="64" viewBox="0 0 64 64" fill="none" xmlns="http://www.w3.org/2000/svg">
  <!-- 背景圆形 -->
  <circle cx="32" cy="32" r="30" fill="url(#gradient)" stroke="#1890ff" stroke-width="2"/>
  
  <!-- 主文档 -->
  <rect x="16" y="12" width="24" height="32" rx="2" fill="#ffffff" stroke="#1890ff" stroke-width="1.5"/>
  
  <!-- 文档折角 -->
  <path d="M36 12 L36 18 L42 18 Z" fill="#e6f7ff" stroke="#1890ff" stroke-width="1"/>
  
  <!-- 代码行 -->
  <rect x="20" y="20" width="16" height="2" rx="1" fill="#52c41a"/>
  <rect x="20" y="24" width="12" height="2" rx="1" fill="#1890ff"/>
  <rect x="20" y="28" width="14" height="2" rx="1" fill="#722ed1"/>
  <rect x="20" y="32" width="10" height="2" rx="1" fill="#fa8c16"/>
  
  <!-- 模板变量标识 -->
  <circle cx="22" cy="37" r="1.5" fill="#ff4d4f"/>
  <circle cx="26" cy="37" r="1.5" fill="#ff4d4f"/>
  <rect x="29" y="36" width="6" height="2" rx="1" fill="#ff4d4f"/>
  
  <!-- 右下角的小图标表示生成/输出 -->
  <circle cx="48" cy="48" r="8" fill="#52c41a" stroke="#ffffff" stroke-width="2"/>
  <path d="M44 48 L48 52 L52 44" stroke="#ffffff" stroke-width="2" stroke-linecap="round" stroke-linejoin="round" fill="none"/>
  
  <!-- 渐变定义 -->
  <defs>
    <linearGradient id="gradient" x1="0%" y1="0%" x2="100%" y2="100%">
      <stop offset="0%" style="stop-color:#e6f7ff;stop-opacity:1" />
      <stop offset="100%" style="stop-color:#f0f9ff;stop-opacity:1" />
    </linearGradient>
  </defs>
</svg>